<?xml version="1.0" encoding="UTF-8"?>
<svg id="Layer_2" data-name="Layer 2" xmlns="http://www.w3.org/2000/svg" viewBox="0 0 69.48 79.39">
  <defs>
    <style>
      .cls-1 {
        fill: #646464;
        stroke-width: 0px;
      }
    </style>
  </defs>
  <g id="Layer_1-2" data-name="Layer 1">
    <path class="cls-1" d="m36.73,79.33c-15.01-1.39-26.37-8.23-32.78-22.31-5.32-11.67-5.24-23.53.12-35.04C9.62,10.04,19.28,2.86,32.31.65c12.92-2.2,24.36,1.25,34.33,9.74,3.11,2.65,3.21,2.6.22,5.5-2.73,2.65-5.6,5.16-8.27,7.86-1.14,1.15-1.81,1.2-2.92-.01-7.07-7.69-18.77-8.37-26.97-4.12-6.45,3.34-9.81,9.07-10.59,16.08-.93,8.4,1.04,16.01,8.12,21.45,8.42,6.47,21.22,5.68,28.83-1.84,1.58-1.56,2.4-1.57,3.88.03,3.15,3.4,6.51,6.61,9.8,9.87.75.74,1.13,1.28.09,2.17-6.65,5.65-13.86,10.18-22.68,11.52-3.1.47-6.23.59-9.44.45Z"/>
    <path class="cls-1" d="m38.7,26.87c7.29.03,12.66,5.54,12.65,12.99-.01,7.1-5.7,12.88-12.66,12.87-7.07,0-12.82-5.84-12.8-12.99.02-7.35,5.54-12.89,12.81-12.87Z"/>
  </g>
</svg>