<?xml version="1.0" encoding="UTF-8"?>
<svg id="Layer_2" data-name="Layer 2" xmlns="http://www.w3.org/2000/svg" viewBox="0 0 74.77 75.16">
  <defs>
    <style>
      .cls-1 {
        fill: #646464;
        stroke-width: 0px;
      }
    </style>
  </defs>
  <g id="Layer_1-2" data-name="Layer 1">
    <path class="cls-1" d="m36.98,75.13C17.09,75.6.04,58.34,0,37.74-.05,16.65,17.23-.28,38.05,0c19.31.27,36.67,16.01,36.73,37.78.06,21.46-17.89,38.1-37.79,37.35Zm.8-5.42c3.55.09,7.15-.61,10.68-1.91,1.11-.41,1.41-.94,1.18-1.99-1.55-7.16-3.34-14.25-5.93-21.12-.47-1.24-1.02-1.64-2.37-1.09-2.3.92-4.55,1.92-6.7,3.16-6.31,3.62-11.73,8.16-15.72,14.37-1.03,1.61-.68,2.27.72,3.2,5.44,3.62,11.38,5.52,18.13,5.4Zm-24.13-10.59c6.2-9.4,13.94-16.46,24.25-20.41,2.97-1.13,2.99-1.06,1.58-3.95-.22-.45-.5-.88-.62-1.35-.28-1.09-.94-1.17-1.89-.9-9.82,2.78-19.88,3.94-30.05,4.24-1.06.03-1.47.39-1.45,1.46.17,7.89,2.85,14.79,8.17,20.91Zm-5.65-27.9c3.91-.31,7.62-.52,11.31-.93,4.92-.55,9.8-1.38,14.59-2.69.88-.24,1.84-.31,1.02-1.74-3.13-5.45-6.48-10.75-10.1-15.89-.69-.98-1.3-1.26-2.44-.63-7.98,4.45-13.25,11.02-15.77,19.8-.41,1.43-.13,2.31,1.4,2.09ZM37.49,5.54c-1.74,0-3.45.23-5.18.41-1.93.21-2.31.65-1.11,2.32,3.56,4.98,6.85,10.13,9.76,15.52.49.9,1.02,1.43,2.16.93,5.27-2.31,10.14-5.17,14.1-9.44,1.29-1.39.87-2.21-.4-3.16-5.74-4.27-12.14-6.58-19.33-6.59Zm31.77,30.14c-.61-6.71-2.59-12.03-6-16.85-.81-1.15-1.35-1.37-2.38-.18-3.44,3.98-7.63,7-12.34,9.33-4.32,2.14-4.2,2.1-2.25,6.64.69,1.59,1.59,1.87,3.03,1.64,5.87-.94,11.7-.14,17.47.75,2.22.34,2.68-.22,2.47-1.33Zm-13.93,28.64c7.17-5.18,11.5-11.74,13.31-20,.29-1.3,0-1.73-1.27-2-5.53-1.18-11.06-1.96-16.72-1.07-1.2.19-1.58.45-1.13,1.71,2.45,6.84,4.25,13.86,5.81,21.36Z"/>
  </g>
</svg>