<?xml version="1.0" encoding="UTF-8"?>
<svg id="Layer_2" data-name="Layer 2" xmlns="http://www.w3.org/2000/svg" viewBox="0 0 74.88 75.07">
  <defs>
    <style>
      .cls-1 {
        fill: #656565;
        stroke-width: 0px;
      }
    </style>
  </defs>
  <g id="Layer_1-2" data-name="Layer 1">
    <path class="cls-1" d="m37.63,0c9.6,0,19.19,0,28.79,0,5.02,0,8.42,3.29,8.43,8.36.04,19.52.04,39.05,0,58.57-.01,4.87-3.28,8.06-8.11,8.08-6.95.03-13.9-.04-20.85.04-1.63.02-2.15-.47-2.13-2.1.07-7.11.06-14.23,0-21.34-.01-1.48.4-2.09,1.96-2l5.95.05c1.26.05,1.98-.22,2.14-1.65l1.28-8.57c.21-1.28-.19-1.82-1.54-1.79-2.56.06-5.13-.04-7.69.04-1.46.04-2.16-.41-2.08-1.96,0,0,.13-5.99.33-7.42.43-3.07,2.28-4.65,5.32-4.97.49-.05.99-.06,1.49-.07q5.1-.11,5.1-5.35t-5.26-5.53c-2.81-.13-5.66-.38-8.41.24-6.56,1.5-10.76,6.65-11.09,13.47-.15,3.05-.1,6.12-.09,9.18,0,2.24-.3,2.24-2.44,2.24l-6.3.13c-1.27.03-1.78.4-1.75,1.71v8.44c-.05,1.39.41,1.92,1.83,1.86l6.7-.04c1.31-.04,1.95.26,1.94,1.76-.06,7.28-.07,14.56,0,21.84.02,1.71-.83,1.82-2.15,1.82-6.62-.04-13.24-.01-19.86-.02-5.96,0-9.08-3.11-9.1-9.18C0,51.63.02,37.4.02,23.17c0-4.72-.04-9.43.01-14.15C.09,3.09,3.21,0,9.08,0c9.51,0,19.03,0,28.54,0Z"/>
  </g>
</svg>