<?xml version="1.0" encoding="UTF-8"?>
<svg id="Layer_2" data-name="Layer 2" xmlns="http://www.w3.org/2000/svg" viewBox="0 0 69.19 71.57">
  <defs>
    <style>
      .cls-1 {
        fill: #626262;
        stroke-width: 0px;
      }
    </style>
  </defs>
  <g id="Layer_1-2" data-name="Layer 1">
    <path class="cls-1" d="m68.87,51.99c-.55,11.61-7.94,19.02-19.57,19.38-9.39.29-18.8.23-28.2.07-8.31-.14-15.07-3.23-18.77-11.21-1.79-3.86-1.98-8.04-2.12-12.19C-.08,38.9-.12,29.75.38,20.61,1.09,7.79,7.82.75,20.57.24c9.47-.38,18.97-.25,28.44,0,8.03.21,14.48,3.48,18.02,11.14,1.86,4.02,2,8.37,2.1,12.69.09,3.99.02,7.98.02,11.97m-62.69-.13c0,4.49-.12,8.99.04,13.48.12,3.4.43,6.85,2.37,9.82,2.6,3.98,6.59,5.44,11.09,5.69,9.81.54,19.63.64,29.43-.02,8-.54,12.5-4.5,13.09-12.07.89-11.53,1.04-23.12-.11-34.64-.65-6.55-4.6-10.43-11.15-11.12-10.45-1.11-20.97-.93-31.41-.21-8.74.6-12.03,4.38-13.1,13.12-.65,5.3-.21,10.64-.25,15.96Z"/>
    <path class="cls-1" d="m34.68,54.11c-9.93-.11-17.89-8.39-17.73-18.44.16-10.21,8.24-18.38,17.98-18.19,9.72.19,17.66,8.59,17.47,18.47-.2,10.18-8.09,18.27-17.72,18.16Zm.3-30.13c-6.37-.11-11.57,4.91-11.75,11.35-.19,6.62,4.8,12.21,11.03,12.37,6.44.17,11.75-4.98,11.87-11.52.12-6.68-4.82-12.09-11.15-12.2Z"/>
    <path class="cls-1" d="m57.28,16.79c-.03,2.11-2.1,4.16-4.18,4.12-2.12-.04-4.07-2.08-4.03-4.23.04-2.36,1.79-4.2,3.99-4.19,2.34.01,4.25,1.96,4.22,4.29Z"/>
  </g>
</svg>