<?xml version="1.0" encoding="UTF-8"?>
<svg id="Layer_2" data-name="Layer 2" xmlns="http://www.w3.org/2000/svg" viewBox="0 0 72.89 75.12">
  <defs>
    <style>
      .cls-1 {
        fill: #656565;
        stroke-width: 0px;
      }
    </style>
  </defs>
  <g id="Layer_1-2" data-name="Layer 1">
    <path class="cls-1" d="m40.15,31.61c6.43-9.13,16.34-9.05,23.08-6.36,4.5,1.79,6.86,5.46,8.17,9.93,1.03,3.51,1.39,7.13,1.43,10.76.08,8.93-.02,17.87.07,26.8.02,1.86-.51,2.44-2.37,2.37h-10.66c-1.93.09-2.34-.61-2.32-2.41.09-8.11.03-16.21.04-24.32,0-1.82-.09-3.63-.57-5.4-.9-3.32-3.14-5.24-6.27-5.37-4.59-.19-7.34,1.3-8.67,4.66-1.18,2.98-1.29,6.14-1.34,9.26-.1,7.11-.08,14.23,0,21.34.02,1.75-.52,2.28-2.25,2.22h-10.91c-1.38.02-1.87-.4-1.86-1.83.04-15.55.04-31.1,0-46.65,0-1.25.35-1.77,1.68-1.75,3.72.07,7.44.05,11.16,0,1.16-.01,1.64.39,1.59,1.58-.07,1.61-.02,3.23-.02,5.15Z"/>
    <path class="cls-1" d="m1.03,27.12c-.02-1.69.39-2.33,2.19-2.27l11.4.02c1.28-.02,1.73.4,1.73,1.7-.03,15.62-.04,31.25,0,46.87,0,1.37-.58,1.65-1.78,1.64l-11.15.02c-1.85.07-2.41-.49-2.39-2.36"/>
    <path class="cls-1" d="m17.37,9.05c-.04,5.21-3.78,9-8.84,8.94C3.81,17.93-.04,13.82,0,8.87.04,3.73,3.85-.06,8.94,0c4.89.06,8.47,3.9,8.44,9.05Z"/>
  </g>
</svg>