<?xml version="1.0" encoding="UTF-8"?>
<svg id="Layer_2" data-name="Layer 2" xmlns="http://www.w3.org/2000/svg" viewBox="0 0 454.05 102">
  <defs>
    <style>
      .cls-1, .cls-2 {
        stroke-width: 0px;
      }

      .cls-2 {
        fill: #fff;
      }
    </style>
  </defs>
  <g id="Layer_1-2" data-name="Layer 1">
    <path class="cls-1" d="m180.76,44.15h12.08v37.38h-11.94v-13.45h-13.29v13.48h-12.11v-37.45h12.04v13.08h13.22v-13.05Z"/>
    <path class="cls-1" d="m418.2,44.29c7.85,0,15.59-.37,23.28.12,5.49.35,9.09,4.24,10.09,9.25,1.2,6-.64,9.99-6.69,13.99,2.64,3.28,5.28,6.54,7.88,9.82.5.63,1.02,1.34,1.19,2.1.31,1.32-.07,2.34-1.76,2.14-.16-.02-.33,0-.5,0-3.32-.06-7.15.88-9.81-.47-2.66-1.36-4.16-5.01-6.15-7.66-.9-1.2-1.64-2.52-2.65-3.61-.6-.65-1.58-.95-2.94-1.72v13.31h-11.93v-37.26Zm12.17,10.33v5.68c2.18,0,4.17.11,6.14-.04,1.51-.12,2.72-.88,2.76-2.64.03-1.77-.85-2.89-2.64-2.98-2.05-.11-4.11-.02-6.26-.02Z"/>
    <path class="cls-1" d="m411.53,54.52h-19.2c-.05,1.09-.1,2.02-.15,3.24h15.25v9.68h-15.04v3.63h19.08v10.5h-30.78v-37.41h30.85v10.37Z"/>
    <path class="cls-1" d="m284.52,44.06c7.14,0,14.05-.26,20.94.07,8.57.41,13.35,6.09,13.12,14.94-.2,7.77-5.97,13.26-14.08,13.38-2.56.04-5.13,0-7.93,0v9.04h-12.05v-37.43Zm12.24,10.64v7.21c2.07,0,3.97.11,5.86-.03,2.11-.15,3.35-1.43,3.4-3.55.05-1.99-1-3.4-3.02-3.59-2.03-.19-4.09-.04-6.24-.04Z"/>
    <path class="cls-1" d="m354.3,72.44v9.11h-12.01v-37.36c.76-.07,1.4-.18,2.04-.18,6.08-.01,12.17-.1,18.25.02,6.38.12,11.58,3.7,12.97,8.71,2.11,7.57.38,13.93-5.33,17.4-2.23,1.35-5.1,1.84-7.75,2.23-2.52.37-5.13.08-8.16.08Zm.22-10.54c2.09,0,3.91.06,5.73-.01,2.16-.08,3.38-1.27,3.5-3.43.12-2.1-1.2-3.68-3.38-3.85-1.88-.15-3.79-.03-5.85-.03v7.33Z"/>
    <path class="cls-1" d="m57.97,54.99c3.25-6.83,6.37-13.4,9.65-20.3-2.74-.67-4.96-1.22-7.04-1.73-2.17,6.7-4.3,13.29-6.52,20.14-2.22-1.42-4.09-2.61-5.72-3.65,2.14-7.36,4.21-14.49,6.46-22.23,3.63.38,7.75.61,11.8,1.28,8.85,1.47,17.03,4.79,24.71,9.44,1.31.79,1.57,1.55.85,2.78-3.97,6.8-7.93,13.6-11.98,20.36-.28.47-1.27.85-1.83.75-7.04-1.29-13.87-3.23-20.21-6.63-.13-.07-.21-.25-.17-.2Z"/>
    <path class="cls-1" d="m150.91,49.38c-1.77,2.94-3.46,5.76-5.06,8.42-2.68-1.01-5.1-2.3-7.67-2.81-4.24-.84-7.41.65-9.06,3.65-1.66,3-1.27,7.07.92,9.61,2.14,2.49,6.33,3.5,9.88,2.17,1.91-.71,3.68-1.78,5.74-2.8,1.54,2.53,3.2,5.1,4.64,7.8.24.45-.35,1.68-.89,2.14-7.05,5.97-18.79,6.17-26.21.54-6.27-4.75-9.06-12.76-7.02-20.16,2.12-7.72,8.4-13.16,16.3-14.1,7.48-.89,12.16.49,18.45,5.55Z"/>
    <path class="cls-1" d="m30.23,78.7c5.34-7.9,10.29-15.24,15.41-22.82,1.45.91,3.24,2.03,5.41,3.39-3.93,6.01-7.74,11.83-11.79,18.01,5.82-4.88,10.15-10.61,14.33-16.14,6.84,2.44,13.52,4.83,20.57,7.34-2.72,2.67-5.31,5.69-8.37,8.12-4.91,3.9-10.12,7.44-15.25,11.07-.52.37-1.5.68-1.98.45-6.2-3.11-12.35-6.32-18.34-9.42Z"/>
    <path class="cls-1" d="m219.62,44.14h11.88v26.99h17.15v10.34h-29.03v-37.33Z"/>
    <path class="cls-1" d="m212.18,81.52h-11.87v-37.41h11.87v37.41Z"/>
    <path class="cls-1" d="m265.54,44.18v37.34h-11.85v-37.34h11.85Z"/>
    <path class="cls-1" d="m334.99,44.13v37.34h-11.97v-37.34h11.97Z"/>
    <path class="cls-1" d="m25.6,83.77c4.72,2.78,9.91,5.83,15.3,9-13.18,5.95-26.88,8.95-40.9,9.23,8.38-5.97,16.84-11.99,25.6-18.23Z"/>
    <path class="cls-1" d="m83.94,0c2.82,7.4,3.2,14.38.24,21.26-.94,2.17-.47,3.12,1.2,4.44,1.23.97,1.97,2.56,2.87,3.92.1.15-.22.58-.3.79-7.19-2.33-14.32-4.63-21.7-7.02-.15-1.11.56-1.84,2.08-1.88,1.5-.03,3.03-.25,4.48-.02,1.86.3,2.9-.37,3.84-1.91,2.32-3.81,3.3-8,3.35-12.35.04-3.14,2.04-4.82,3.95-7.23Z"/>
    <path class="cls-2" d="m430.37,54.63c2.15,0,4.21-.08,6.26.02,1.79.09,2.67,1.21,2.64,2.98-.03,1.76-1.25,2.52-2.76,2.64-1.97.15-3.96.04-6.14.04v-5.68Z"/>
    <path class="cls-2" d="m296.76,54.7c2.15,0,4.21-.15,6.24.04,2.02.19,3.07,1.61,3.02,3.59-.05,2.12-1.29,3.4-3.4,3.55-1.89.14-3.79.03-5.86.03v-7.21Z"/>
    <path class="cls-2" d="m354.52,61.9v-7.33c2.06,0,3.96-.12,5.85.03,2.18.17,3.5,1.75,3.38,3.85-.12,2.16-1.35,3.35-3.5,3.43-1.82.07-3.64.01-5.73.01Z"/>
  </g>
</svg>