<?xml version="1.0" encoding="UTF-8"?>
<svg id="Layer_2" data-name="Layer 2" xmlns="http://www.w3.org/2000/svg" viewBox="0 0 203.56 98.02">
  <defs>
    <style>
      .cls-1 {
        fill: #dadada;
        stroke-width: 0px;
      }
    </style>
  </defs>
  <g id="Layer_1-2" data-name="Layer 1">
    <path class="cls-1" d="m157.42,97.99c-25.88.67-45.76-20.69-45.74-45.8.02-25.19,20.22-45.57,46.14-45.66,25.52-.09,46.48,21.14,45.72,47.79-.66,23.29-20.97,44.6-46.13,43.66Zm19.57-46.46c0-3,.05-6-.01-8.99-.11-5.67-4.17-11.26-9.54-13.07-6.96-2.35-13.95-2.18-20.69.63-4.96,2.06-8.15,5.85-8.98,11.37-.11.71-.31,1.47.66,1.49,2.91.07,5.83.15,8.74-.01,1.4-.08,1.46-1.72,1.99-2.67.78-1.39,2.44-2.31,3.88-2.86,3.63-1.37,8.83-1.16,11.73,1.69,1.67,1.64,3.14,4.39,1.6,5.99-1,1.05-2.61.87-3.95.88-5.82.05-11.63-.05-17.21,2.05-4.74,1.78-7.89,5.05-8.62,10.08-.74,5.1.25,9.9,4.66,13.19,5.81,4.34,17.13,4.54,23.11.14,1.08-.8,2.01-2.4,2.96-2.48,1.53-.12,1.1,2.3,2.27,3.11.34.24.63.55.98.76,1.95,1.18,4.22,1.58,6.48,1.47,1.98-.1,5.21.09,5.15-2.69-.04-1.73-.04-3.51-.19-5.23-.08-.93-.58-1.36-1.53-1.41-2.82-.13-3.5-2.01-3.48-4.44.03-3,0-6,0-8.99Z"/>
    <path class="cls-1" d="m83.95,80.55c-5.41,4.06-11.15,6.04-17.46,5.91-11.89-.24-21.01-5.7-26.61-16.01-7.3-13.48-6.71-27.04,2.16-39.7,5.09-7.27,12.49-11.14,21.38-12.25,8.11-1.02,15.21,1.07,21.6,6.03,2.41,1.87,4.04,4.37,5.84,6.74.33.43.46,1.21,1.23.98.6-.18.38-.83.46-1.3,1.66-9.45,3.37-18.89,4.92-28.35.3-1.82.84-2.65,2.79-2.58,3.33.12,6.66.08,9.99.02,1.49-.03,1.91.61,1.67,1.98-2.27,12.95-4.54,25.9-6.78,38.85-2.23,12.96-4.42,25.92-6.64,38.88q-.81,4.75-5.6,4.75c-2.33,0-4.67-.09-6.99.03-2.04.1-2.1-.46-1.99-2.55.02-.3.02-.64.02-1.42Zm-32.93-28.34c-.13,7,1.55,13.16,7.34,17.1,7.81,5.32,19.92,3.13,23.72-7.32,3.35-9.19,3.34-18.03-4.22-25.32-6.17-5.95-18.16-5.71-23.3,2.53-2.53,4.07-3.72,8.48-3.55,13Z"/>
    <path class="cls-1" d="m.06,42.36c0-13.23.04-26.46-.04-39.68C0,.61.58-.09,2.67,0c3.32.16,6.66.13,9.98,0,1.83-.07,2.49.47,2.44,2.37-.13,4.41.04,8.82-.08,13.23-.05,1.82.45,2.51,2.37,2.45,3.99-.13,7.99.02,11.98-.07,1.58-.03,2.26.41,2.2,2.1-.11,2.99-.1,5.99,0,8.98.05,1.58-.61,1.99-2.07,1.97-3.99-.07-7.99.09-11.98-.07-2.05-.08-2.5.66-2.5,2.57.06,15.97-.01,31.95.09,47.92.02,2.37-.58,3.23-3.03,3.06-2.98-.21-6-.2-8.98,0-2.36.15-3.12-.53-3.1-2.99.12-13.06.06-26.12.06-39.18Z"/>
    <path class="cls-1" d="m160.4,53.96c1.81-.01,3.64.03,5.45.2.35.03.72.16.89.47.09.16.11.35.12.54.15,2.13-.53,4.27-1.58,6.1-1.03,1.8-2.76,3.14-4.67,3.93-2.5,1.04-6.25,1.68-8.88.8-2.09-.69-4.02-2.13-4.58-4.35-.6-2.4.56-5.05,2.73-6.26,1.17-.65,2.52-.86,3.85-1.02,2.22-.26,4.44-.4,6.67-.41Z"/>
  </g>
</svg>