<?xml version="1.0" encoding="UTF-8"?>
<svg id="Layer_1" data-name="Layer 1" xmlns="http://www.w3.org/2000/svg" viewBox="0 0 925.3 272.98">
  <defs>
    <style>
      .cls-1 {
        fill: #010101;
        stroke-width: 0px;
      }
    </style>
  </defs>
  <path class="cls-1" d="m117.31,162.2c-.17-61.17,49.86-110.93,111.49-110.89,61.63.04,111.23,49.3,111.45,110.69.22,60.96-49.76,110.82-111.25,110.98-61.55.16-111.52-49.41-111.69-110.78Zm112.76,64.25c37.17-1.1,64.09-31.25,63.36-65.66-.77-36.42-32.01-66.05-70.49-62.74-32.36,2.79-59.56,29.79-58.8,65.37.79,36.7,30.81,63.52,65.92,63.03Z"/>
  <path class="cls-1" d="m782.9,146.33c17.49-20.71,34.52-40.87,51.55-61.04,7.31-8.65,14.62-17.3,21.91-25.96.67-.8,1.3-1.32,2.47-1.32,19.24.05,38.49.04,57.73.05.06,0,.11.09.36.29-4.41,4.93-8.81,9.86-13.21,14.79-20.31,22.73-40.59,45.48-60.95,68.17-1.33,1.48-1.46,2.35-.28,4.06,27.16,39.41,54.24,78.87,81.33,118.32.45.66.85,1.35,1.49,2.36h-2.53c-16,0-31.99-.03-47.99.05-1.66,0-2.5-.58-3.36-1.87-19.16-28.7-38.36-57.36-57.56-86.04-.51-.76-1.03-1.51-1.66-2.41-6.08,6.79-12.12,13.53-18.15,20.27-3.22,3.6-6.38,7.25-9.66,10.8-1.09,1.18-1.54,2.36-1.54,3.98.05,17.57,0,35.15.09,52.72.01,2.14-.6,2.56-2.62,2.55-14.83-.09-29.66-.09-44.49,0-1.97.01-2.67-.31-2.66-2.51.06-87.04.06-174.08.02-261.13,0-1.92.44-2.48,2.43-2.47,14.91.09,29.83.09,44.74,0,2.07-.01,2.59.48,2.59,2.57-.07,46.81-.05,93.62-.05,140.43v3.32Z"/>
  <path class="cls-1" d="m422.39,82.01c6.65-7.66,14.28-13.06,22.62-17.52,10.63-5.7,22.04-8.9,33.95-10.31,15.8-1.87,31.41-.91,46.68,3.88,25.81,8.1,42.61,25.06,50.32,50.99,3.37,11.35,4.53,23,4.53,34.78.03,39.99,0,79.97.05,119.96,0,1.89-.38,2.51-2.41,2.49-14.83-.09-29.66-.1-44.49,0-2.05.01-2.61-.44-2.6-2.56.07-37.99.05-75.97.05-113.96,0-7.28-.64-14.47-2.97-21.41-4.87-14.52-15.52-22.54-29.99-25.61-15.89-3.37-31.53-2.18-46.32,4.98-10.3,4.99-18.37,12.52-23.78,22.74-.63,1.19-.59,2.39-.59,3.63,0,43.07-.02,86.14.06,129.21,0,2.36-.47,3.02-2.93,3-14.83-.13-29.66-.1-44.49-.02-1.83,0-2.35-.37-2.34-2.29.06-67.89.06-135.79,0-203.68,0-1.88.47-2.33,2.34-2.32,12.75.09,25.5.08,38.24,0,1.73-.01,2.19.47,2.3,2.18.48,7.05,1.14,14.1,1.79,21.83Z"/>
  <path class="cls-1" d="m.06,132.87C.06,89.48.07,46.08,0,2.69,0,.5.49-.02,2.68,0c14.91.11,29.82.09,44.73.01,1.75,0,2.18.42,2.18,2.17-.07,17.82-.01,35.65-.09,53.47,0,1.94.46,2.44,2.42,2.43,16.41-.09,32.82-.02,49.23-.09,1.83,0,2.36.38,2.35,2.3-.09,13.74-.09,27.49,0,41.23.01,1.87-.35,2.49-2.39,2.48-16.33-.1-32.66,0-48.98-.12-2.32-.02-2.63.69-2.63,2.76.06,52.22.03,104.45.1,156.67,0,2.26-.53,2.84-2.81,2.82-14.74-.11-29.49-.11-44.23,0-2.09.01-2.56-.5-2.56-2.57.07-43.56.05-87.12.05-130.68Z"/>
  <path class="cls-1" d="m680.39,162.26c0,33.73-.02,67.46.05,101.2,0,2.17-.48,2.75-2.7,2.73-14.83-.11-29.66-.1-44.48,0-1.98.01-2.44-.52-2.44-2.46.05-67.8.05-135.59,0-203.39,0-1.84.4-2.34,2.3-2.33,14.91.09,29.82.09,44.73,0,2.06-.01,2.6.46,2.59,2.57-.07,33.9-.05,67.8-.05,101.7Z"/>
</svg>